<svg id="Capa_1" enable-background="new 0 0 512 512" height="512" viewBox="0 0 512 512" width="512" xmlns="http://www.w3.org/2000/svg" xmlns:xlink="http://www.w3.org/1999/xlink"><linearGradient id="lg1"><stop offset="0" stop-color="#364aff"/><stop offset="1" stop-color="#fc54ff"/></linearGradient><linearGradient id="SVGID_1_" gradientUnits="userSpaceOnUse" x1="74.981" x2="437.02" xlink:href="#lg1" y1="437.019" y2="74.98"/><radialGradient id="SVGID_2_" cx="256.001" cy="256" gradientUnits="userSpaceOnUse" r="258.6"><stop offset=".095" stop-color="#8d00db" stop-opacity=".66"/><stop offset=".2822" stop-color="#9f0de1" stop-opacity=".523"/><stop offset=".6541" stop-color="#cc30f0" stop-opacity=".252"/><stop offset="1" stop-color="#fc54ff" stop-opacity="0"/></radialGradient><linearGradient id="lg2"><stop offset="0" stop-color="#fc54ff"/><stop offset=".4062" stop-color="#fd9bff"/><stop offset="1" stop-color="#fff"/></linearGradient><linearGradient id="SVGID_3_" gradientUnits="userSpaceOnUse" x1="-163.372" x2="507.861" xlink:href="#lg2" y1="520.566" y2="-150.666"/><linearGradient id="SVGID_4_" gradientUnits="userSpaceOnUse" x1="-195.159" x2="519.117" xlink:href="#lg2" y1="670.306" y2="-43.969"/><linearGradient id="SVGID_5_" gradientUnits="userSpaceOnUse" x1="48.032" x2="394.477" xlink:href="#lg1" y1="397.129" y2="50.684"/><linearGradient id="SVGID_6_" gradientUnits="userSpaceOnUse" x1="4.624" x2="413.194" xlink:href="#lg2" y1="768.183" y2="359.613"/><linearGradient id="SVGID_7_" gradientUnits="userSpaceOnUse" x1="-1.221" x2="392.065" xlink:href="#lg2" y1="613.82" y2="220.534"/><linearGradient id="SVGID_8_" gradientUnits="userSpaceOnUse" x1="51.437" x2="291.843" xlink:href="#lg2" y1="583.399" y2="342.993"/><linearGradient id="SVGID_9_" gradientUnits="userSpaceOnUse" x1="159.355" x2="582.632" xlink:href="#lg2" y1="573.248" y2="149.971"/><linearGradient id="SVGID_10_" gradientUnits="userSpaceOnUse" x1="86.152" x2="570.942" xlink:href="#lg2" y1="506.15" y2="21.359"/><linearGradient id="lg3"><stop offset="0" stop-color="#b31de7"/><stop offset="1" stop-color="#fda0ff"/></linearGradient><linearGradient id="SVGID_11_" gradientUnits="userSpaceOnUse" x1="-80.843" x2="402.2" xlink:href="#lg3" y1="794.866" y2="311.823"/><linearGradient id="SVGID_12_" gradientUnits="userSpaceOnUse" x1="-4.683" x2="375.062" xlink:href="#lg3" y1="584.297" y2="204.553"/><linearGradient id="SVGID_13_" gradientUnits="userSpaceOnUse" x1="-19.811" x2="403.972" xlink:href="#lg1" y1="464.972" y2="41.189"/><linearGradient id="SVGID_14_" gradientUnits="userSpaceOnUse" x1="27.472" x2="395.757" xlink:href="#lg1" y1="472.959" y2="104.674"/><linearGradient id="SVGID_15_" gradientUnits="userSpaceOnUse" x1="-212.43" x2="419.595" xlink:href="#lg2" y1="705.329" y2="73.304"/><linearGradient id="SVGID_16_" gradientUnits="userSpaceOnUse" x1="-131.498" x2="423.019" xlink:href="#lg2" y1="589.762" y2="35.245"/><linearGradient id="SVGID_17_" gradientUnits="userSpaceOnUse" x1="174.924" x2="282.182" xlink:href="#lg1" y1="197.64" y2="90.382"/><linearGradient id="SVGID_18_" gradientUnits="userSpaceOnUse" x1="146.229" x2="249.369" xlink:href="#lg1" y1="218.33" y2="115.189"/><linearGradient id="lg4"><stop offset="0" stop-color="#fc54ff" stop-opacity="0"/><stop offset=".1548" stop-color="#f44efc" stop-opacity=".102"/><stop offset=".3981" stop-color="#dd3df5" stop-opacity=".263"/><stop offset=".699" stop-color="#b921e9" stop-opacity=".461"/><stop offset="1" stop-color="#8d00db" stop-opacity=".66"/></linearGradient><radialGradient id="SVGID_19_" cx="229.801" cy="163.057" gradientTransform="matrix(1 0 0 1.466 0 -75.978)" gradientUnits="userSpaceOnUse" r="49.536" xlink:href="#lg4"/><linearGradient id="SVGID_20_" gradientUnits="userSpaceOnUse" x1="228.758" x2="335.252" xlink:href="#lg1" y1="197.251" y2="90.757"/><linearGradient id="SVGID_21_" gradientUnits="userSpaceOnUse" x1="200.203" x2="302.634" xlink:href="#lg1" y1="217.763" y2="115.332"/><radialGradient id="SVGID_22_" cx="283.321" cy="163.057" gradientTransform="matrix(1 0 0 1.466 0 -75.978)" gradientUnits="userSpaceOnUse" r="49.536" xlink:href="#lg4"/><g><circle cx="256" cy="256" fill="url(#SVGID_1_)" r="256"/><circle cx="256" cy="256" fill="url(#SVGID_2_)" r="256"/><path d="m126.306 93.683c-8.322.205-15.362 7.217-15.61 15.547-1.694 57.936-2.181 115.872-1.462 173.808.106 8.332 7.112 15.245 15.535 15.348 15.464 10.313 30.91 20.677 46.304 31.048-1.06-78.887-.842-157.774.652-236.662-15.14.239-30.28.543-45.419.911z" fill="url(#SVGID_3_)"/><path d="m385.694 93.683c-71.323-1.735-142.646-2.039-213.97-.911-8.321.135-15.29 7.136-15.463 15.533-1.163 58.375-1.497 116.75-1.004 175.126.074 8.396 7.044 15.332 15.467 15.4 28.566 15.518 57.039 31.075 85.275 46.45 43.452-15.375 87.27-31.181 131.232-46.895 8.422-.102 15.429-7.017 15.534-15.348.719-57.936.232-115.872-1.462-173.808-.247-8.33-7.288-15.34-15.609-15.547z" fill="url(#SVGID_4_)"/><path d="m125.885 108.884c-1.385 53.033-1.869 106.068-1.453 159.101 87.712.562 175.424.562 263.137 0-87.297-52.473-176.325-107.938-261.684-159.101z" fill="url(#SVGID_5_)"/><path d="m371.14 344.273c-.431 20.319-.977 40.637-1.64 60.956 15-.41 30-.902 45-1.475 16.47-.651 30.735-14.782 31.506-31.254-24.745-9.063-49.72-18.512-74.866-28.227z" fill="url(#SVGID_6_)"/><path d="m400.647 373.985c-47.697-13.794-95.996-28.704-144.647-44.079-63.908 15.375-127.352 29.948-190.006 42.594.772 16.474 15.036 30.604 31.506 31.254 90.667 3.463 181.333 3.954 272 1.475 16.471-.466 30.553-14.591 31.147-31.244z" fill="url(#SVGID_7_)"/><path d="m256 345.281c20.289 10.25 40.464 20.406 60.479 30.392-.125 8.469-6.979 15.426-15.291 15.51-30.126.297-60.251.297-90.377 0-8.313-.083-15.166-7.043-15.291-15.51 20.016-9.986 40.191-20.142 60.48-30.392z" fill="url(#SVGID_8_)"/><path d="m406.885 305.49c-2.682-4.519-7.626-7.249-13.008-7.183-15.319.189-30.638.346-45.957.472 17.956 25.333 35.617 50.452 52.726 75.206 15.12-.428 30.24-.923 45.36-1.485-12.626-22.065-25.72-44.428-39.121-67.01z" fill="url(#SVGID_9_)"/><path d="m347.921 298.779c-76.599.629-153.199.472-229.798-.472-5.381-.065-10.325 2.664-13.007 7.183-13.401 22.582-26.495 44.945-39.122 67.01 111.551 4.146 223.102 4.641 334.653 1.485-12.872-22.423-26.151-45.086-39.68-67.911-2.707-4.57-7.665-7.338-13.046-7.295z" fill="url(#SVGID_10_)"/><path d="m393.622 313.489c-9.347.142-18.693.269-28.04.382-7.21 5.17-14.412 10.348-21.603 15.529 13.151 4.946 26.265 9.834 39.334 14.649 9.301-.18 18.603-.381 27.904-.6-5.796-9.942-11.666-19.93-17.595-29.96z" fill="url(#SVGID_11_)"/><path d="m118.377 313.489c-5.929 10.029-11.799 20.018-17.595 29.959 94.177 2.224 188.354 2.423 282.532.6-5.849-10.021-11.763-20.083-17.731-30.178-82.402.994-164.804.867-247.206-.381z" fill="url(#SVGID_12_)"/><path d="m270.337 107.498c-48.151-.114-96.301.348-144.452 1.386 55.325 89.171 154.421 150.433 261.683 159.101.034.001.176-32.668.142-32.668-39.029-42.116-78.659-85.106-117.373-127.819z" fill="url(#SVGID_13_)"/><path d="m387.711 235.317c.036-42.144-.495-84.289-1.595-126.433-38.593-.832-77.186-1.294-115.778-1.386 15.277 59.671 59.924 107.82 117.373 127.819z" fill="url(#SVGID_14_)"/><path d="m346.934 203.044c-2.274-2.075-4.548-4.15-6.823-6.228-6.583-29.463-13.309-58.985-20.059-88.546-7.027-30.448-33.692-52.552-64.052-52.551-30.359-.001-57.026 22.104-64.053 52.552-6.75 29.561-13.476 59.084-20.059 88.546-2.274 2.077-4.549 4.153-6.822 6.228-6.373 5.814-10.018 13.991-10.026 22.551-.036 39.642.309 79.284 1.037 118.927 3.196.049 6.371-1.129 8.772-3.548 1.768-1.781 3.539-3.564 5.312-5.348 5.866-5.9 15.539-5.815 21.554.226 1.819 1.826 3.637 3.653 5.453 5.479 4.934 4.959 12.831 5.028 17.676.13 1.784-1.802 3.571-3.605 5.359-5.41 5.916-5.969 15.589-5.94 21.554.075 1.803 1.818 3.606 3.636 5.406 5.454 4.89 4.935 12.786 4.937 17.676 0 1.8-1.817 3.602-3.635 5.406-5.454 5.966-6.012 15.638-6.042 21.554-.075 1.788 1.804 3.575 3.608 5.359 5.41 4.845 4.896 12.743 4.83 17.676-.13 1.816-1.827 3.634-3.653 5.453-5.479 6.015-6.041 15.687-6.126 21.554-.226 1.773 1.784 3.544 3.567 5.312 5.348 2.4 2.42 5.576 3.595 8.771 3.548.727-39.643 1.073-79.285 1.037-118.927-.009-8.559-3.654-16.738-10.027-22.552z" fill="url(#SVGID_15_)"/><path d="m341.494 268.228c.072-14.215.102-28.43.091-42.645-.004-4.276-1.828-8.389-5.001-11.287-3.471-3.169-6.942-6.341-10.414-9.515-6.887-31.078-13.909-62.213-20.926-93.378-5.273-23.237-25.977-40.31-49.244-40.31-23.267-.002-43.971 17.07-49.244 40.31-7.016 31.165-14.039 62.299-20.926 93.378-3.472 3.174-6.943 6.345-10.414 9.514-3.174 2.899-4.998 7.013-5.002 11.289-.011 14.214.02 28.429.091 42.644 56.997.238 113.993.238 170.989 0z" fill="url(#SVGID_16_)"/><path d="m229.371 117.272c-2.775.011-5.372.786-7.621 2.107-.096 15.689-.172 31.377-.228 47.066 2.251 1.303 4.861 2.059 7.656 2.053 8.467-.021 15.337-6.907 15.347-15.398.01-6.832.021-13.666.033-20.499.011-8.488-6.788-15.365-15.187-15.329z" fill="url(#SVGID_17_)"/><path d="m229.224 153.131c.023-6.83.048-13.66.077-20.49.023-5.685-3.023-10.626-7.552-13.261-4.561 2.68-7.667 7.646-7.705 13.329-.045 6.826-.086 13.651-.121 20.476-.03 5.679 3.031 10.617 7.598 13.261 4.586-2.67 7.685-7.63 7.703-13.315z" fill="url(#SVGID_18_)"/><path d="m214.044 132.709c-.045 6.826-.086 13.651-.121 20.476-.047 8.481 6.787 15.33 15.255 15.313 8.467-.021 15.337-6.907 15.347-15.398.01-6.832.021-13.666.033-20.499.011-8.49-6.788-15.366-15.187-15.33-8.4.038-15.266 6.956-15.327 15.438z" fill="url(#SVGID_19_)"/><path d="m282.629 117.272c-2.775-.01-5.365.744-7.601 2.047.054 15.697.096 31.394.127 47.091 2.259 1.316 4.872 2.082 7.668 2.088 8.468.015 15.301-6.832 15.255-15.313-.036-6.825-.076-13.65-.121-20.476-.062-8.482-6.928-15.401-15.328-15.437z" fill="url(#SVGID_20_)"/><path d="m282.776 153.131c-.023-6.83-.048-13.66-.077-20.49-.024-5.682-3.117-10.65-7.671-13.321-4.536 2.643-7.595 7.598-7.586 13.282.012 6.833.023 13.666.033 20.499.007 5.689 3.098 10.643 7.679 13.31 4.572-2.65 7.642-7.594 7.622-13.28z" fill="url(#SVGID_21_)"/><path d="m267.442 132.602c.012 6.833.023 13.666.033 20.499.009 8.491 6.88 15.379 15.347 15.398 8.468.015 15.301-6.832 15.255-15.313-.036-6.825-.076-13.65-.121-20.476-.06-8.482-6.927-15.401-15.326-15.437-8.4-.036-15.199 6.838-15.188 15.329z" fill="url(#SVGID_22_)"/></g></svg>